<svg xmlns="http://www.w3.org/2000/svg" xmlns:xlink="http://www.w3.org/1999/xlink" viewBox="0 0 571.01 279.65">
    <defs>
        <style>
            .cls-1{fill:url(#linear-gradient)}.cls-2,.cls-4{fill:#259cd8}.cls-3{fill:url(#linear-gradient-2)}.cls-4,.cls-5{fill-rule:evenodd}.cls-5{fill:#5bc5f2}.cls-6{fill:url(#linear-gradient-3)}
        </style>
        <linearGradient id="linear-gradient" x1="515.59" x2="515.59" y1=".12" y2="187.68" gradientUnits="userSpaceOnUse">
            <stop offset="0" stop-color="#60c6f2"/>
            <stop offset=".21" stop-color="#4ab6e8"/>
            <stop offset=".48" stop-color="#36a8df"/>
            <stop offset=".74" stop-color="#299fda"/>
            <stop offset="1" stop-color="#259cd8"/>
        </linearGradient>
        <linearGradient id="linear-gradient-2" x1="307.97" x2="307.97" y2="187.04" xlink:href="#linear-gradient"/>
        <linearGradient id="linear-gradient-3" x1="425.7" x2="425.7" y1=".18" y2="186.68" xlink:href="#linear-gradient"/>
    </defs>
    <g id="Слой_2" data-name="Слой 2">
        <g id="Layer_1" data-name="Layer 1">
            <path d="M535.07.12l17 11.37-47.61 70.37c6.47-2.18 9.56-2.34 15.24-2.34a48.3 48.3 0 0 1 36.11 15.35q14.84 15.35 14.84 37.82a54.77 54.77 0 0 1-7.17 27.86 52.3 52.3 0 0 1-20.36 19.79 57.39 57.39 0 0 1-28.38 7.34 54.54 54.54 0 0 1-27.28-7.1 51 51 0 0 1-19.75-20 55.75 55.75 0 0 1-7.17-27.56A66.57 66.57 0 0 1 465 110q4.41-12 15.84-29zM515.46 96.6a36.11 36.11 0 0 0-36.14 36.21A36.15 36.15 0 1 0 541 107.17a34.86 34.86 0 0 0-25.54-10.57z" class="cls-1"/>
            <path d="M22.89 254.76H8v17.44H0v-41.66h8v17h14.89v-17h8v41.67h-8zM48.65 230.54h24.18v7.26h-16.2v9.7h14.74v7.26H56.63v10.18h16.49v7.26H48.65zM126.78 279.65h-5.65l-.87-7.44H94l-.87 7.44h-5.62v-14.7h4.31a24.82 24.82 0 0 0 1.34-2.95 41.73 41.73 0 0 0 1.86-6.4 90.86 90.86 0 0 0 1.57-10.36 137.11 137.11 0 0 0 .58-14.73h24.41v34.41h5.18zm-13.17-14.7V237.8h-9a113.74 113.74 0 0 1-1.66 17.35 50 50 0 0 1-2.65 9.79zM169.52 240.24a13 13 0 0 1-.38 3.09 8.62 8.62 0 0 1-1.25 2.83 8.89 8.89 0 0 1-2.26 2.26 9.73 9.73 0 0 1-3.36 1.46v.36a13.4 13.4 0 0 1 3.3 1 8.48 8.48 0 0 1 2.72 2 9 9 0 0 1 1.83 3 12.08 12.08 0 0 1 .67 4.23 11.06 11.06 0 0 1-1.34 5.57 11.2 11.2 0 0 1-3.58 3.84 16.31 16.31 0 0 1-5.1 2.2 24.13 24.13 0 0 1-5.88.71h-2.53q-1.54 0-3.32-.09t-3.61-.27a25.29 25.29 0 0 1-3.35-.54v-41.05q1.11-.18 2.53-.36t3.06-.3q1.63-.12 3.35-.18t3.41-.06a34.15 34.15 0 0 1 5.56.45 15.69 15.69 0 0 1 4.84 1.58 8.94 8.94 0 0 1 3.41 3.16 9.41 9.41 0 0 1 1.28 5.11zM152.45 248q.81 0 1.89-.06a16.49 16.49 0 0 0 1.78-.18 10.51 10.51 0 0 0 3.82-2.12 4.71 4.71 0 0 0 1.6-3.71 5 5 0 0 0-.58-2.53 4.47 4.47 0 0 0-1.54-1.59 6.49 6.49 0 0 0-2.18-.82 13.52 13.52 0 0 0-2.56-.24q-1.52 0-2.8.06a17.63 17.63 0 0 0-2 .18v11zm2.55 18a10.83 10.83 0 0 0 2.77-.35 7.17 7.17 0 0 0 2.37-1.09 5.67 5.67 0 0 0 1.66-1.86 5.33 5.33 0 0 0 .63-2.65 5.49 5.49 0 0 0-.74-3.06 5.11 5.11 0 0 0-1.94-1.74 7.84 7.84 0 0 0-2.69-.8 25.34 25.34 0 0 0-3-.18h-4.18v11.33a3.4 3.4 0 0 0 .91.18q.63.06 1.34.09l1.49.06zM210.71 249.11l.47-5.42h-.29l-2.74 5.6-15.21 22.92h-6v-41.67h8v22.68l-.58 5.59h.35l2.85-5.77 15.2-22.5h5.94v41.67h-8zM254.17 230.54h7.57v18.51l2-.83 8.45-17.68h9l-9.5 18.27-2.74 2 3.32 2.5 10.73 18.9h-9.6l-9.4-18.1h-2.27v18.1h-7.57V253.4l-2.1.83-9.38 18h-9.32l10.64-18.3 3.15-2.32-3-2.2-10-18.87h9.26l8.45 17.8h2.27zM321.46 249.11l.47-5.42h-.29l-2.74 5.6-15.2 22.92h-6v-41.67h8v22.68l-.58 5.59h.35l2.83-5.81 15.21-22.5h5.94v41.67h-8zM378.82 250.6l.87-8.27h-.35l-2.5 6.67-8.68 15.54h-2.56l-9.15-15.6-2.56-6.61h-.29l1.16 8.21v21.67h-7.57v-41.67h7.28l10.89 19 1.92 4.76h.23l1.75-4.88 10.31-18.93h7.22v41.67h-8zM403 251.37q0-10.42 4.49-16t12.82-5.62a17.63 17.63 0 0 1 7.63 1.55 14.45 14.45 0 0 1 5.42 4.4 19.45 19.45 0 0 1 3.2 6.85 34.88 34.88 0 0 1 1 8.87q0 10.42-4.52 16T420.32 273a17.78 17.78 0 0 1-7.69-1.55 14.19 14.19 0 0 1-5.39-4.41 19.74 19.74 0 0 1-3.17-6.85 34.86 34.86 0 0 1-1.07-8.82zm8.39 0a29.92 29.92 0 0 0 .52 5.8 15.16 15.16 0 0 0 1.6 4.55 8.24 8.24 0 0 0 2.77 3 7.35 7.35 0 0 0 4 1.07 7.52 7.52 0 0 0 6.58-3.39q2.33-3.39 2.33-11a30.47 30.47 0 0 0-.5-5.66 16 16 0 0 0-1.54-4.58 8.14 8.14 0 0 0-2.74-3.07 8.08 8.08 0 0 0-10.72 2.38q-2.29 3.46-2.28 10.9zM481.8 270.5a12.09 12.09 0 0 1-4.75 1.95 29.49 29.49 0 0 1-5.91.59 20.78 20.78 0 0 1-7-1.16 14.87 14.87 0 0 1-5.8-3.75 18.51 18.51 0 0 1-4-6.73 29.82 29.82 0 0 1-1.49-10 27.71 27.71 0 0 1 1.66-10.27 18.65 18.65 0 0 1 4.31-6.67 15.87 15.87 0 0 1 5.91-3.63 20.31 20.31 0 0 1 6.53-1.1 31.28 31.28 0 0 1 5.91.48 21.35 21.35 0 0 1 4 1.13l-1.57 6.9a11.43 11.43 0 0 0-3.17-1A28.41 28.41 0 0 0 472 237a9.63 9.63 0 0 0-7.78 3.52q-2.94 3.52-2.94 10.92a23.06 23.06 0 0 0 .7 5.88 12.76 12.76 0 0 0 2.13 4.53 9.84 9.84 0 0 0 3.55 2.92 11 11 0 0 0 4.92 1 15.75 15.75 0 0 0 4.43-.54 12.81 12.81 0 0 0 3.15-1.37zM527.52 237.8h-11.88v34.41h-8V237.8h-11.93v-7.26h31.81zM542.7 230.54h8v14.94l1-.15q.67-.09 1.46-.15l1.6-.12q.82-.06 1.51-.06a25.47 25.47 0 0 1 5.53.6 12.5 12.5 0 0 1 4.75 2.11 10.61 10.61 0 0 1 3.29 4.11 15.42 15.42 0 0 1 1.16 6.58q0 7.14-4.34 10.77t-12.44 3.63h-2.18q-1.37 0-3-.15t-3.29-.3a21.83 21.83 0 0 1-3.06-.54zm11.94 35a14 14 0 0 0 3.09-.33 6.88 6.88 0 0 0 2.56-1.13A5.37 5.37 0 0 0 562 262a7.57 7.57 0 0 0 .61-3.21 7.12 7.12 0 0 0-.67-3.3 5.27 5.27 0 0 0-1.75-2 6.41 6.41 0 0 0-2.53-1 18.81 18.81 0 0 0-3-.24c-.27 0-.6 0-1 .06l-1.17.12q-.58.06-1.08.15l-.73.15v12.44a9.57 9.57 0 0 0 1.72.27q1.07.1 2.24.1z" class="cls-2"/>
            <path d="M389.48 187h-24.35V25.88l-50.9 109.66h-14.5L249.2 25.88V187h-22.74V0h33.19l48.81 104.14L355.67 0h33.81z" class="cls-3"/>
            <path d="M6.44 61.4c2.71-10.68 11.14-23.61 15.65-28.72C41 11.31 67.35.55 94.5.55c43.22 0 83.8 28.26 95 68.65h-1.23c-14.44-33.57-54.93-54.27-88.65-47.88a63.78 63.78 0 0 0-15 4.82c-6-.54-12.27-1.14-17.81-.27a87.14 87.14 0 0 0-43.3 19.87A63.72 63.72 0 0 0 3.66 78.17 132.41 132.41 0 0 1 6.44 61.4z" class="cls-4"/>
            <path d="M185 83.93l-7.72 20.45c-.92 2.44-1.33 4.91-2.68 6.8-3.34 4.66-7.22 11.16-10.39 15.45-2.85 3.82-16.57 12.49-26.84 14.57l-6.94-24c-.89-3.27-1.05-5.52 3.34-11 4.47-6.28 7.65-12.09 11.68-17.84a23 23 0 0 0 2.93-5.42l8-22.78c1.13-3.2 4.6-5.05 9.78-1.53 3.24 2.2 6.09 5.25 4.35 9.66l-9.23 23.34c-.54 1.36-1.37 4.37-3 6.65l-12.41 18.16c-.75 1 2.76 4 3.67 2.77l12.63-18.46 1.63-4 9.54-22.88c1.6-3.85 5.62-2.41 7.68-1 2.55 1.76 6.81 3.54 4 11.07zM128.22 37.86C72.24 2.1 29.79 34.18 18.89 48 7.44 62.5-1.41 81 .3 105.15c1.07 15.21 5.4 27.43 14.4 40.89 11.84 17.72 36.33 36.76 67 40.23-45.75-25-67-59.88-66.44-87.6C15.63 83 21.52 64 41.73 51.19 64.85 36.58 89.38 37 118.8 58.42c5.38 3.93 13.9 1.62 16.65-3.88s-.11-12.14-7.23-16.68z" class="cls-5"/>
            <path d="M131.36 142.63c-1.29-4.2-6-19.53-7.12-23.78-1.3-5.14-.16-9.15 2.3-12.31 5.1-6.56 9.4-14.28 14.21-20.67a24.24 24.24 0 0 0 3.64-7.77l5.36-18.3c1.35-3.93.64-6.7-2.1-8.66-6.4-4.58-15.37 7-12.33 1.2q-3.26 8-6.32 16a24 24 0 0 1-2.85 5.66c-4.74 6.43-9.14 14-14 20.38-4.1 5.35-6.09 5-8.23 4.9-5.1-.29-5.86.73-6.84-2.87l-6.62-24.52A7.39 7.39 0 0 0 84 66.34a36.85 36.85 0 0 0-5.58-.23c-3.95 0-6.46 3-6.5 7.17-.3 29.57 7.59 63.53 12.24 76.69 11.19.5 36-2.43 47.23-7.34z" class="cls-5"/>
            <path d="M184.81 93.56l-6.53 18.21a15.5 15.5 0 0 1-3 5.69c-3.44 4.67-6.65 10.42-10.09 15.09-16.73 19.78-58.09 25.89-81.63 26.12C90 169.09 98.44 178.05 105.88 183c-50.5-15.8-81-81.57-50.91-130.5-12.13 4.09-37.47 22.75-36.7 56 .46 20.1 6.9 37.23 19.17 51.54 6.17 7.2 21.56 20.15 31.56 23.27 14.93 4.63 34.51 4.34 42.6 3.17 20.41-3 46.47-15.54 62.83-38 9.84-13.53 13.63-24.54 16.7-41.23 1.52-8.28 1.81-13.67-2.88-17-1.65-1.16-2.71 1.28-3.43 3.3z" class="cls-4"/>
            <path d="M414.35.18h29.73v186.5h-23.91V22h-12.85z" class="cls-6"/>
        </g>
    </g>
</svg>
